<?xml version="1.0" encoding="UTF-8"?>
<!DOCTYPE svg PUBLIC "-//W3C//DTD SVG 1.1//EN" "http://www.w3.org/Graphics/SVG/1.1/DTD/svg11.dtd">
<!-- Creator: CorelDRAW 2018 (64-Bit) -->
<svg xmlns="http://www.w3.org/2000/svg" xml:space="preserve" width="256px" height="256px" version="1.1" style="shape-rendering:geometricPrecision; text-rendering:geometricPrecision; image-rendering:optimizeQuality; fill-rule:evenodd; clip-rule:evenodd"
viewBox="0 0 256 256"
 xmlns:xlink="http://www.w3.org/1999/xlink">
 <defs>
  <style type="text/css">
   <![CDATA[
    .fil0 {fill:black}
   ]]>
  </style>
 </defs>
 <g id="图层_x0020_1">
  <metadata id="CorelCorpID_0Corel-Layer"/>
  <path class="fil0" d="M185.863 150.149c2.693,-0.036 6.099,4.312 -0.097,6.261 -33.704,8.338 -81.827,8.338 -115.532,0 -6.196,-1.949 -2.789,-6.297 -0.097,-6.261 48.809,6.302 66.917,6.302 115.726,0zm-89.883 -114.75c-8.063,-6.097 -14.759,-6.904 -23.797,-3.722 -28.306,9.965 -33.869,63.975 -37.769,90.144 -1.137,-0.145 -2.31,-0.288 -3.515,-0.431 -7.351,-0.875 -12.704,11.357 -18.918,19.561 -13.053,17.236 6.252,30.633 -0.026,42.144 -3.328,7.194 -7.826,14.65 -11.147,22.36 -1.526,3.541 -0.934,5.682 2.151,6.777 2.447,0.868 5.182,-1.007 7.107,-4.978 1.114,-2.297 2.31,-4.58 3.475,-6.862 0.533,-1.044 6.626,-13.35 6.69,-13.48 4.12,-8.344 1.671,-15.226 -1.145,-22.807 -2.052,-5.525 -4.792,-11.244 -0.274,-17.21 2.601,-4.153 8.669,-15.691 11.655,-16.079 3.274,-0.425 9.162,0.86 12.464,1.663 -8.413,4.543 -13.175,8.709 -13.623,17.927 0.035,8.343 5.78,14.195 14.524,9.972 2.157,-1.377 9.638,-5.097 11.418,-1.823 0.752,3.309 -3.183,6.058 -5.129,8.401 -1.756,2.219 -3.128,4.759 -3.779,7.899 -1.023,5.001 -2.825,7.991 -6.611,11.459 -4.942,4.531 -8.095,21.365 -9.669,31.25 -0.34,2.141 -0.002,5.199 3.419,6.033 1.099,0.269 4.394,0.559 5.681,-5.17 2.314,-10.298 4.179,-22.9 6.351,-25.072 0.714,-0.714 5.658,-4.732 8.407,-11.632 10.033,8.622 27.524,23.012 39.129,28.941l0.006 0.004 -0.001 -0.001c20.851,10.65 49.041,10.65 69.892,0l-0.001 0.001 0.007 -0.004c11.605,-5.929 29.096,-20.319 39.128,-28.941 2.749,6.9 7.693,10.918 8.407,11.632 2.172,2.172 4.038,14.774 6.351,25.072 1.287,5.729 4.583,5.439 5.681,5.17 3.422,-0.834 3.76,-3.892 3.419,-6.033 -1.573,-9.885 -4.726,-26.719 -9.669,-31.25 -3.786,-3.468 -5.588,-6.458 -6.611,-11.459 -0.651,-3.14 -2.023,-5.68 -3.779,-7.899 -1.946,-2.343 -5.881,-5.092 -5.129,-8.401 1.781,-3.274 9.261,0.446 11.418,1.823 8.744,4.223 14.489,-1.629 14.525,-9.972 -0.448,-9.218 -5.211,-13.384 -13.624,-17.927 3.302,-0.803 9.19,-2.088 12.464,-1.663 2.986,0.388 9.054,11.926 11.655,16.079 4.518,5.966 1.778,11.685 -0.274,17.21 -2.816,7.581 -5.265,14.463 -1.145,22.807 0.064,0.13 6.157,12.436 6.69,13.48 1.165,2.282 2.362,4.565 3.475,6.862 1.925,3.971 4.661,5.846 7.107,4.978 3.085,-1.095 3.677,-3.236 2.152,-6.777 -3.322,-7.71 -7.819,-15.166 -11.147,-22.36 -6.278,-11.511 13.026,-24.908 -0.027,-42.144 -6.213,-8.204 -11.567,-20.436 -18.918,-19.561 -1.205,0.143 -2.377,0.286 -3.515,0.431 -3.9,-26.169 -9.462,-80.179 -37.769,-90.144 -9.038,-3.182 -15.734,-2.375 -23.796,3.722 -12.948,9.792 -21.046,22.258 -26.35,37.712 -3.636,-0.186 -7.706,-0.186 -11.342,0 -5.304,-15.454 -13.402,-27.92 -26.349,-37.712zm-39.002 137.672c1.39,-1.91 3.361,-3.461 5.504,-6.01 3.157,-7.608 3.113,-14.444 -5.576,-17.879 -5.212,-1.233 -12.371,-0.553 -18.031,3.542 -0.693,-1.76 -0.552,-3.403 -0.023,-5.208 4.152,-5.484 7.459,-6.656 13.362,-9.136 3.356,-1.41 10.09,-6.787 13.69,-13.9l0.336 -0.335c3.207,-8.868 8.327,-16.819 14.863,-23.355 24.952,-24.952 68.843,-24.952 93.794,0 6.536,6.536 11.656,14.487 14.863,23.355l0.336 0.335c3.6,7.113 10.334,12.49 13.69,13.9 5.903,2.48 9.21,3.652 13.362,9.136 0.529,1.805 0.671,3.448 -0.022,5.208 -5.661,-4.095 -12.82,-4.775 -18.032,-3.542 -8.688,3.435 -8.733,10.271 -5.576,17.879 2.144,2.549 4.115,4.1 5.504,6.01 -57.633,48.718 -84.41,48.718 -142.044,0zm6.289 -64.005c-1.747,2.983 -3.289,6.101 -4.604,9.335 -1.835,3.892 -3.597,6.648 -5.915,8.751 -1.746,-1.847 -4.255,-2.864 -8.715,-3.778 2.299,-17.351 7.899,-73.958 32.217,-83.188 3.805,-1.444 7.982,-0.801 11.456,1.053 11.578,6.178 19.608,21.505 24.171,33.167 -20.569,4.078 -37.987,16.688 -48.61,34.66zm14.79 -17.931c0.246,-1.078 0.487,-2.155 0.725,-3.231l-0.725 3.231zm34.447 27.306c-8.16,1.095 -39.185,6.039 -38.58,12.318 0.52,0.481 1.983,0.698 4.06,0.726 9.477,0.132 31.743,-3.644 35.558,-3.983 2.361,-0.21 4.046,-2.615 3.761,-5.107 0,0 0,0 0,0 -0.286,-2.491 -2.448,-4.27 -4.799,-3.954zm80.229 -9.375c1.748,2.983 3.289,6.101 4.604,9.335 1.835,3.892 3.598,6.648 5.916,8.751 1.745,-1.847 4.254,-2.864 8.714,-3.778 -2.298,-17.351 -7.898,-73.958 -32.216,-83.188 -3.805,-1.444 -7.982,-0.801 -11.457,1.053 -11.578,6.178 -19.608,21.505 -24.171,33.167 20.569,4.078 37.987,16.688 48.61,34.66zm-14.79 -17.931c-0.246,-1.078 -0.487,-2.155 -0.725,-3.231l0.725 3.231zm-34.446 27.306c8.159,1.095 39.184,6.039 38.579,12.318 -0.52,0.481 -1.983,0.698 -4.06,0.726 -9.477,0.132 -31.742,-3.644 -35.557,-3.983 -2.361,-0.21 -4.047,-2.615 -3.762,-5.107 0,0 0,0 0,0 0.286,-2.491 2.449,-4.27 4.8,-3.954z"/>
 </g>
</svg>
